<svg width="79" height="37" viewBox="0 0 79 37" fill="none" xmlns="http://www.w3.org/2000/svg">
<path d="M0.761719 25.375C1.08724 25.2839 1.46484 25.2057 1.89453 25.1406C2.71484 25.0234 3.20312 24.8867 3.35938 24.7305C3.52865 24.5742 3.61328 24.2161 3.61328 23.6562L3.65234 22.9531C3.66536 22.6927 3.67188 22.3607 3.67188 21.957L3.63281 15.9609C3.63281 15.1536 3.52865 14.6328 3.32031 14.3984C2.96875 14.0339 2.31771 13.7799 1.36719 13.6367V12.9336C2.31771 12.6732 3.04688 12.3346 3.55469 11.918C4.29688 11.332 4.92188 10.5378 5.42969 9.53516L6.09375 9.55469C6.13281 10.1667 6.15234 10.6029 6.15234 10.8633V12.1523L6.17188 12.5039C6.32812 12.3997 6.51042 12.2695 6.71875 12.1133C7.5 11.5273 8.30078 11.0521 9.12109 10.6875C9.94141 10.3099 10.6706 10.0495 11.3086 9.90625C11.7122 9.80208 12.168 9.75 12.6758 9.75C13.7435 9.75 14.6615 10.0365 15.4297 10.6094C16.1979 11.1823 16.6927 11.8594 16.9141 12.6406C17.1484 13.4089 17.2656 14.9453 17.2656 17.25V20.1992C17.2656 20.2773 17.2526 20.5378 17.2266 20.9805C17.2135 21.4232 17.207 21.931 17.207 22.5039C17.207 23.4154 17.2461 23.9948 17.3242 24.2422C17.3893 24.4115 17.5586 24.5807 17.832 24.75C19.082 24.9193 19.8112 25.1211 20.0195 25.3555V25.5117C20.0195 25.6419 19.9805 25.8047 19.9023 26H19.5312L16.9531 25.9805L14.4141 26.0195C13.4766 26.0456 12.6107 26.0391 11.8164 26L11.6992 25.5898C11.6992 25.5117 11.7448 25.4076 11.8359 25.2773C12.1875 25.1211 12.6823 25.0169 13.3203 24.9648C13.6979 24.9388 13.9583 24.8997 14.1016 24.8477C14.2448 24.7956 14.4206 24.6914 14.6289 24.5352C14.7852 24.2227 14.8633 23.9622 14.8633 23.7539C14.8633 23.6628 14.8503 23.4805 14.8242 23.207C14.7852 22.6081 14.7591 21.1172 14.7461 18.7344V17.7188L14.7852 16.1562C14.7852 14.4766 14.4466 13.3177 13.7695 12.6797C13.0924 12.0417 12.1875 11.7227 11.0547 11.7227C10.1823 11.7227 9.32943 11.918 8.49609 12.3086C7.66276 12.6862 6.85547 13.2591 6.07422 14.0273C6.04818 14.6523 6.03516 15.1862 6.03516 15.6289L6.09375 19.9453C6.09375 22.1979 6.1263 23.5781 6.19141 24.0859C6.21745 24.2943 6.26302 24.4375 6.32812 24.5156C6.43229 24.6198 6.64062 24.7044 6.95312 24.7695C7.26562 24.8346 7.6237 24.9258 8.02734 25.043C8.44401 25.1602 8.71745 25.2318 8.84766 25.2578C9.10807 25.3229 9.28385 25.4531 9.375 25.6484L9.35547 26.0391H7.30469L3.08594 25.9805C2.10938 26.0065 1.49089 26.0195 1.23047 26.0195H0.742188L0.703125 25.7656C0.703125 25.6745 0.722656 25.5443 0.761719 25.375ZM21.1523 3.92969L21.9531 0.980469C22.0052 0.589844 22.0768 0.342448 22.168 0.238281C22.2591 0.121094 22.3633 0.0625 22.4805 0.0625C22.7148 0.0625 22.9818 0.342448 23.2812 0.902344C23.5026 1.30599 23.6849 1.56641 23.8281 1.68359C23.9714 1.78776 24.1797 1.85938 24.4531 1.89844L24.6484 1.87891L25.4883 1.95703L30.0977 2.01562L35.5469 1.99609H37.1484L40.1758 1.9375C40.306 1.9375 40.4688 1.95052 40.6641 1.97656C41.5495 2.05469 42.0964 2.09375 42.3047 2.09375C42.5 2.09375 42.6562 2.02865 42.7734 1.89844C42.8125 1.84635 43.0273 1.40365 43.418 0.570312C43.5872 0.192708 43.7956 0.00390625 44.043 0.00390625C44.1471 0.00390625 44.2773 0.0299479 44.4336 0.0820312C44.4987 0.342448 44.5312 0.576823 44.5312 0.785156L44.5117 1.56641L44.5312 3.22656C44.5312 3.63021 44.4987 4.93229 44.4336 7.13281C44.4336 7.27604 44.4076 7.40625 44.3555 7.52344C44.2122 7.61458 44.0885 7.66016 43.9844 7.66016C43.8802 7.66016 43.7891 7.61458 43.7109 7.52344C43.6328 7.41927 43.5352 7.11328 43.418 6.60547C43.1576 5.43359 42.832 4.59375 42.4414 4.08594C42.181 3.76042 41.8034 3.52604 41.3086 3.38281C40.8268 3.23958 39.6615 3.16797 37.8125 3.16797C36.3281 3.16797 35.2279 3.19401 34.5117 3.24609C34.4857 3.76693 34.4727 4.24219 34.4727 4.67188L34.6289 16.8008C34.6289 17.2826 34.6029 18.194 34.5508 19.5352L34.5703 22.1328L34.5508 23.5781C34.5508 24.0339 34.6289 24.3594 34.7852 24.5547C34.9414 24.75 35.3646 24.9388 36.0547 25.1211C37.2526 25.4206 38.0534 25.6029 38.457 25.668C38.7044 25.694 38.9062 25.7461 39.0625 25.8242V26.4102L36.2891 26.332C34.7656 26.319 33.6198 26.2865 32.8516 26.2344L30 26.3711L27.9102 26.4883C27.3242 26.4883 26.9661 26.4753 26.8359 26.4492L26.5625 26.332C26.5885 26.0326 26.6471 25.8438 26.7383 25.7656C26.8294 25.6745 27.0703 25.6029 27.4609 25.5508C28.0078 25.4727 28.6523 25.3359 29.3945 25.1406C30.1367 24.9323 30.625 24.724 30.8594 24.5156C30.9896 24.3984 31.0807 24.2031 31.1328 23.9297C31.25 23.3568 31.3086 22.2305 31.3086 20.5508V17.2305L31.2305 9.98438L31.1523 8.42188L31.1328 3.20703C30.3125 3.11589 29.2643 3.07031 27.9883 3.07031C26.1133 3.07031 24.974 3.1875 24.5703 3.42188C23.9323 3.78646 22.9818 4.85417 21.7188 6.625C21.3021 7.28906 20.9375 7.62109 20.625 7.62109L20.4492 7.58203C20.3971 7.50391 20.3711 7.43229 20.3711 7.36719C20.3711 7.21094 20.4753 6.74219 20.6836 5.96094C20.944 4.95833 21.1003 4.28125 21.1523 3.92969ZM59.1797 23.3438C59.2578 23.513 59.2969 23.6367 59.2969 23.7148C59.2969 23.9102 59.1406 24.2552 58.8281 24.75C58.4245 25.401 57.9753 25.8763 57.4805 26.1758C57.168 26.3711 56.7383 26.4688 56.1914 26.4688C55.2539 26.4688 54.5508 26.1823 54.082 25.6094C53.7956 25.2708 53.5938 24.6654 53.4766 23.793L51.2891 25.3164C50.5208 25.7591 49.9349 26.0391 49.5312 26.1562C48.8802 26.3255 48.099 26.4102 47.1875 26.4102C46.5234 26.4102 45.9961 26.2148 45.6055 25.8242C45.2279 25.4206 45.0391 24.9062 45.0391 24.2812C45.0391 23.3828 45.5859 22.3086 46.6797 21.0586C47.7865 19.8086 49.2839 18.7865 51.1719 17.9922C52.5 17.4323 53.3138 17.0742 53.6133 16.918C53.6393 16.4883 53.6523 16.0195 53.6523 15.5117C53.6523 13.8581 53.418 12.7383 52.9492 12.1523C52.4935 11.5664 51.8359 11.2734 50.9766 11.2734C50.0781 11.2734 49.2383 11.625 48.457 12.3281C47.9753 12.7708 47.6107 13.6042 47.3633 14.8281C47.2852 15.1667 47.1354 15.5312 46.9141 15.9219C46.3542 16.2865 45.9049 16.4688 45.5664 16.4688C45.2799 16.4688 45.0195 16.3841 44.7852 16.2148C44.6549 16.1237 44.5898 16.0195 44.5898 15.9023C44.5898 15.5638 44.9479 14.8021 45.6641 13.6172C46.3932 12.4193 47.3047 11.5273 48.3984 10.9414C49.5052 10.3424 50.4688 10.043 51.2891 10.043C52.4089 10.043 53.2422 10.1471 53.7891 10.3555C54.3359 10.5508 54.8177 10.9023 55.2344 11.4102C55.651 11.918 55.9049 12.4714 55.9961 13.0703C56.0482 13.3568 56.0742 14.3789 56.0742 16.1367L56.0156 19.2422L56.0352 21.5078C56.0352 21.8073 56.0286 22.0612 56.0156 22.2695C56.0026 22.6471 55.9961 22.9271 55.9961 23.1094C55.9961 23.5391 56.1198 23.8841 56.3672 24.1445C56.6146 24.4049 56.9076 24.5352 57.2461 24.5352C57.7409 24.5352 58.1641 24.2878 58.5156 23.793L58.75 23.4805C58.8151 23.4414 58.9583 23.3958 59.1797 23.3438ZM53.4375 22.7773C53.5286 21.1237 53.5742 19.9583 53.5742 19.2812C53.5742 18.9297 53.5547 18.4544 53.5156 17.8555C52.6432 18.168 51.7188 18.6432 50.7422 19.2812C49.7656 19.9193 48.9909 20.6549 48.418 21.4883C48.0013 22.0872 47.793 22.6536 47.793 23.1875C47.793 23.6953 47.9622 24.1185 48.3008 24.457C48.6523 24.7956 49.0885 24.9648 49.6094 24.9648C50.013 24.9648 50.5013 24.8216 51.0742 24.5352C51.8294 24.1576 52.6172 23.5716 53.4375 22.7773ZM60.0391 36.1953C60.026 36.0521 60.0195 35.9219 60.0195 35.8047C60.0195 35.7135 60.0326 35.6029 60.0586 35.4727L62.0117 35.082C62.3242 34.9258 62.5781 34.737 62.7734 34.5156C62.8385 34.2812 62.8711 34.0469 62.8711 33.8125C62.8711 31.8073 62.819 27.9857 62.7148 22.3477L62.6562 15.1992C62.6302 14.0664 62.5586 13.3503 62.4414 13.0508C62.3763 12.8945 62.2786 12.7708 62.1484 12.6797C61.8229 12.4323 61.1719 12.224 60.1953 12.0547L60.3125 11.4688C61.7188 10.8698 62.6562 10.4076 63.125 10.082C63.6068 9.74349 64.0625 9.27474 64.4922 8.67578L64.7266 8.61719C64.8177 8.61719 64.9479 8.65625 65.1172 8.73438C65.1042 9.55469 65.0977 10.0951 65.0977 10.3555L65.1172 12.5039C66.0807 11.7747 67.0833 11.2344 68.125 10.8828C69.1667 10.5182 70.2474 10.3359 71.3672 10.3359C73.3724 10.3359 75.0651 11.0456 76.4453 12.4648C77.8255 13.8711 78.5156 15.6875 78.5156 17.9141C78.5156 19.5677 78.125 21.0521 77.3438 22.3672C76.5755 23.6823 75.5078 24.6654 74.1406 25.3164C72.7865 25.9674 71.4193 26.293 70.0391 26.293C68.8672 26.293 67.526 25.974 66.0156 25.3359C65.7682 25.2318 65.5469 25.1406 65.3516 25.0625C65.3255 26.1042 65.3125 27.0286 65.3125 27.8359C65.3125 31.8594 65.4232 34.112 65.6445 34.5938C65.7617 34.8542 66.1263 35.0104 66.7383 35.0625C67.7799 35.1406 68.4701 35.2904 68.8086 35.5117C69.0039 35.6289 69.1341 35.8633 69.1992 36.2148L67.2656 36.2539L65.5078 36.2148L62.5781 36.2344L60.0391 36.1953ZM65.1367 13.8516C65.1107 14.0339 65.0977 14.2031 65.0977 14.3594C65.0977 19.0078 65.1432 21.612 65.2344 22.1719C65.4167 23.2005 65.7812 23.9232 66.3281 24.3398C67.1745 25.0039 68.3854 25.3359 69.9609 25.3359C71.5885 25.3359 72.9622 24.776 74.082 23.6562C75.2018 22.5234 75.7617 21.0586 75.7617 19.2617C75.7617 17.1003 75.1693 15.388 73.9844 14.125C72.7995 12.862 71.237 12.2305 69.2969 12.2305C68.4766 12.2305 67.7214 12.3672 67.0312 12.6406C66.3411 12.901 65.7096 13.3047 65.1367 13.8516Z" fill="white"/>
</svg>